<svg width="31" height="24" viewBox="0 0 31 24" fill="none" xmlns="http://www.w3.org/2000/svg">
<path d="M0.229492 7.5C0.229492 5.84315 1.57264 4.5 3.22949 4.5H6.64835C7.294 4.5 7.86721 4.08685 8.07138 3.47434L8.88761 1.02566C9.09178 0.413145 9.66499 0 10.3106 0H20.1484C20.794 0 21.3672 0.413145 21.5714 1.02566L22.3876 3.47434C22.5918 4.08685 23.165 4.5 23.8106 4.5H27.2295C28.8863 4.5 30.2295 5.84315 30.2295 7.5V21C30.2295 22.6569 28.8863 24 27.2295 24H3.22949C1.57264 24 0.229492 22.6569 0.229492 21V7.5Z" fill="#DDDDDD"/>
<path d="M21.2295 13.5C21.2295 16.8137 18.5432 19.5 15.2295 19.5C11.9158 19.5 9.22949 16.8137 9.22949 13.5C9.22949 10.1863 11.9158 7.5 15.2295 7.5C18.5432 7.5 21.2295 10.1863 21.2295 13.5Z" fill="black"/>
</svg>
