<svg width="27" height="26" viewBox="0 0 27 26" fill="none" xmlns="http://www.w3.org/2000/svg">
<path fill-rule="evenodd" clip-rule="evenodd" d="M1.89616 17.6667L5.05181 14.511C6.94463 12.6182 7.89103 11.6718 8.93308 11.8725C9.97513 12.0731 10.5024 13.3034 11.5568 15.7638L12.0658 16.9514C12.5931 18.1816 12.8567 18.7967 13.3777 18.8971C13.8987 18.9974 14.3719 18.5242 15.3183 17.5778L15.7344 17.1618L15.7344 17.1617C17.0677 15.8284 17.7344 15.1618 18.5628 15.1618C19.3913 15.1618 20.0579 15.8284 21.3913 17.1618L22.4819 18.2524C22.7204 18.4909 22.8397 18.6102 22.9637 18.7155C23.5964 19.2528 24.3803 19.5799 25.2068 19.6517C25.1451 21.732 24.9151 22.9713 24.0579 23.8284C22.8863 25 21.0007 25 17.2295 25H9.22949C5.45826 25 3.57264 25 2.40107 23.8284C1.22949 22.6568 1.22949 20.7712 1.22949 17V8.99999C1.22949 5.8749 1.22949 4.04463 1.89616 2.84253V17.6667Z" fill="#222222"/>
<path d="M13.2295 1H9.22949C5.45826 1 3.57264 1 2.40107 2.17157C1.22949 3.34315 1.22949 5.22876 1.22949 9V17C1.22949 20.7712 1.22949 22.6569 2.40107 23.8284C3.57264 25 5.45826 25 9.22949 25H17.2295C21.0007 25 22.8863 25 24.0579 23.8284C25.2295 22.6569 25.2295 20.7712 25.2295 17V13" stroke="#222222" stroke-width="2"/>
<path d="M25.2295 1V0H26.2295V1H25.2295ZM19.1875 7.1142C18.7563 7.45921 18.127 7.38929 17.782 6.95803C17.4369 6.52677 17.5069 5.89747 17.9381 5.55246L19.1875 7.1142ZM24.2295 7.66667V1H26.2295V7.66667H24.2295ZM25.2295 2H18.5628V0H25.2295V2ZM25.8542 1.78087L19.1875 7.1142L17.9381 5.55246L24.6048 0.219131L25.8542 1.78087Z" fill="#DDDDDD"/>
</svg>
