<svg width="24" height="23" viewBox="0 0 24 23" fill="none" xmlns="http://www.w3.org/2000/svg">
<path d="M3.39857 10.0189L9.06178 11.913C9.56728 12.082 9.82003 12.1666 9.98899 12.3558C10.158 12.545 10.2134 12.8057 10.3244 13.327L11.5678 19.1677C12.0642 21.4996 12.3124 22.6655 12.9983 22.7412C13.6842 22.8169 14.1806 21.733 15.1734 19.5654L22.5292 3.50475C23.3088 1.80267 23.6985 0.951637 23.2824 0.485636C22.8663 0.0196347 21.9768 0.310961 20.1976 0.893613L3.40994 6.39148C1.14419 7.1335 0.011308 7.50451 0.00914537 8.19456C0.00698281 8.8846 1.13751 9.2627 3.39857 10.0189Z" fill="#222222"/>
</svg>
