<svg width="50" height="50" viewBox="0 0 50 50" fill="none" xmlns="http://www.w3.org/2000/svg">
<circle cx="25" cy="25" r="24" transform="rotate(-180 25 25)" stroke="black" stroke-width="2"/>
<path fill-rule="evenodd" clip-rule="evenodd" d="M36.1613 17.583C37.1768 19.0489 37.1768 21.0895 37.1768 25.1708C37.1768 29.252 37.1768 31.2927 36.1613 32.7586C35.7217 33.3932 35.1567 33.938 34.4988 34.362C33.1712 35.2177 31.3889 35.3258 28.1388 35.3395V35.3423L26.0138 39.4416C25.6407 40.1612 24.6113 40.1612 24.2382 39.4416L22.1132 35.3423V35.3395C18.8625 35.3259 17.0799 35.2177 15.7522 34.362C15.0943 33.938 14.5293 33.3932 14.0897 32.7586C13.0742 31.2927 13.0742 29.252 13.0742 25.1708C13.0742 21.0895 13.0742 19.0489 14.0897 17.583C14.5293 16.9484 15.0943 16.4035 15.7522 15.9795C17.272 15 19.3877 15 23.6191 15H26.6319C30.8633 15 32.979 15 34.4988 15.9795C35.1567 16.4035 35.7217 16.9484 36.1613 17.583Z" fill="white"/>
<path d="M36.1613 17.583L35.3393 18.1524L35.3393 18.1524L36.1613 17.583ZM36.1613 32.7586L35.3393 32.1891V32.1891L36.1613 32.7586ZM34.4988 34.362L33.9571 33.5215H33.9571L34.4988 34.362ZM28.1388 35.3395L28.1346 34.3395C27.584 34.3419 27.1388 34.7889 27.1388 35.3395H28.1388ZM28.1388 35.3423L29.0266 35.8025C29.1003 35.6603 29.1388 35.5025 29.1388 35.3423H28.1388ZM26.0138 39.4416L26.9016 39.9018L26.0138 39.4416ZM24.2382 39.4416L25.126 38.9813H25.126L24.2382 39.4416ZM22.1132 35.3423H21.1132C21.1132 35.5025 21.1516 35.6603 21.2254 35.8025L22.1132 35.3423ZM22.1132 35.3395H23.1132C23.1132 34.7889 22.668 34.3419 22.1174 34.3395L22.1132 35.3395ZM15.7522 34.362L16.2939 33.5215H16.2939L15.7522 34.362ZM14.0897 32.7586L13.2677 33.328H13.2677L14.0897 32.7586ZM14.0897 17.583L14.9117 18.1524L14.9117 18.1524L14.0897 17.583ZM15.7522 15.9795L16.2939 16.82L16.2939 16.82L15.7522 15.9795ZM34.4988 15.9795L33.9571 16.82L33.9571 16.82L34.4988 15.9795ZM38.1768 25.1708C38.1768 23.1517 38.1781 21.5594 38.0443 20.2912C37.9086 19.0044 37.6252 17.9401 36.9833 17.0135L35.3393 18.1524C35.7129 18.6918 35.9372 19.3806 36.0554 20.501C36.1755 21.6399 36.1768 23.1086 36.1768 25.1708H38.1768ZM36.9833 33.328C37.6252 32.4015 37.9086 31.3371 38.0443 30.0503C38.1781 28.7821 38.1768 27.1898 38.1768 25.1708H36.1768C36.1768 27.233 36.1755 28.7016 36.0554 29.8405C35.9372 30.9609 35.7129 31.6498 35.3393 32.1891L36.9833 33.328ZM35.0405 35.2026C35.8072 34.7085 36.4679 34.072 36.9833 33.328L35.3393 32.1891C34.9754 32.7143 34.5063 33.1675 33.9571 33.5215L35.0405 35.2026ZM28.143 36.3395C29.7634 36.3327 31.082 36.3031 32.1719 36.1577C33.2765 36.0105 34.2111 35.7372 35.0405 35.2026L33.9571 33.5215C33.4589 33.8425 32.8386 34.0511 31.9076 34.1753C30.9619 34.3014 29.7642 34.3327 28.1346 34.3395L28.143 36.3395ZM29.1388 35.3423V35.3395H27.1388V35.3423H29.1388ZM26.9016 39.9018L29.0266 35.8025L27.251 34.8821L25.126 38.9813L26.9016 39.9018ZM23.3504 39.9018C24.0965 41.3412 26.1554 41.3412 26.9016 39.9018L25.126 38.9813H25.126L23.3504 39.9018ZM21.2254 35.8025L23.3504 39.9018L25.126 38.9813L23.001 34.8821L21.2254 35.8025ZM21.1132 35.3395V35.3423H23.1132V35.3395H21.1132ZM15.2105 35.2026C16.04 35.7372 16.9747 36.0105 18.0794 36.1578C19.1695 36.3031 20.4882 36.3327 22.109 36.3395L22.1174 34.3395C20.4874 34.3327 19.2895 34.3014 18.3437 34.1753C17.4126 34.0512 16.7921 33.8426 16.2939 33.5215L15.2105 35.2026ZM13.2677 33.328C13.7831 34.072 14.4438 34.7085 15.2105 35.2026L16.2939 33.5215C15.7447 33.1675 15.2756 32.7143 14.9117 32.1891L13.2677 33.328ZM12.0742 25.1708C12.0742 27.1898 12.0729 28.7821 12.2067 30.0503C12.3424 31.3371 12.6258 32.4015 13.2677 33.328L14.9117 32.1891C14.5381 31.6498 14.3138 30.9609 14.1956 29.8405C14.0755 28.7016 14.0742 27.233 14.0742 25.1708H12.0742ZM13.2677 17.0135C12.6258 17.9401 12.3424 19.0044 12.2067 20.2912C12.0729 21.5594 12.0742 23.1517 12.0742 25.1708H14.0742C14.0742 23.1086 14.0755 21.6399 14.1956 20.501C14.3138 19.3806 14.5381 18.6918 14.9117 18.1524L13.2677 17.0135ZM15.2105 15.1389C14.4438 15.633 13.7831 16.2695 13.2677 17.0135L14.9117 18.1524C15.2756 17.6272 15.7447 17.174 16.2939 16.82L15.2105 15.1389ZM23.6191 14C21.5235 14 19.8791 13.9989 18.5711 14.1272C17.2482 14.257 16.1599 14.527 15.2105 15.1389L16.2939 16.82C16.8643 16.4524 17.5938 16.2327 18.7664 16.1177C19.9541 16.0011 21.4833 16 23.6191 16V14ZM26.6319 14H23.6191V16H26.6319V14ZM35.0405 15.1389C34.0911 14.527 33.0028 14.257 31.6799 14.1272C30.3718 13.9989 28.7275 14 26.6319 14V16C28.7677 16 30.2969 16.0011 31.4846 16.1177C32.6572 16.2327 33.3867 16.4524 33.9571 16.82L35.0405 15.1389ZM36.9833 17.0135C36.4679 16.2695 35.8072 15.633 35.0405 15.1389L33.9571 16.82C34.5063 17.174 34.9754 17.6272 35.3393 18.1524L36.9833 17.0135Z" fill="black"/>
<ellipse cx="31.1529" cy="25.1712" rx="1.50641" ry="1.45297" fill="black" stroke="black" stroke-width="2" stroke-linecap="round"/>
<ellipse cx="25.1275" cy="25.1712" rx="1.50641" ry="1.45297" fill="black" stroke="black" stroke-width="2" stroke-linecap="round"/>
<ellipse cx="19.1002" cy="25.1712" rx="1.50641" ry="1.45297" fill="black" stroke="black" stroke-width="2" stroke-linecap="round"/>
</svg>
