<svg width="121" height="25" viewBox="0 0 121 25" fill="none" xmlns="http://www.w3.org/2000/svg">
<path d="M10.6052 3.62918C10.9734 2.89105 12.0266 2.89105 12.3948 3.62918L14.5733 7.99604C14.7225 8.29518 15.0114 8.49997 15.343 8.54178L20.2814 9.16444C21.1288 9.27129 21.4608 10.3228 20.8285 10.8969L17.2757 14.1229C17.0171 14.3577 16.8997 14.7104 16.9661 15.0533L17.8664 19.7041C18.0254 20.5252 17.1662 21.167 16.4239 20.7817L11.9608 18.4646C11.6719 18.3147 11.3281 18.3147 11.0392 18.4646L6.57608 20.7817C5.83381 21.167 4.9746 20.5252 5.13355 19.7041L6.03389 15.0533C6.10027 14.7104 5.98293 14.3577 5.72435 14.1229L2.17151 10.8969C1.53916 10.3228 1.87122 9.27129 2.71864 9.16444L7.65695 8.54178C7.98862 8.49997 8.27746 8.29518 8.42669 7.99604L10.6052 3.62918Z" fill="#FFC700"/>
<path d="M35.0838 2.93002C35.4333 2.13102 36.5667 2.13102 36.9162 2.93002L38.9451 7.56857C39.0838 7.88559 39.3765 8.10839 39.719 8.15764L44.5267 8.849C45.334 8.96509 45.6703 9.94676 45.1037 10.5335L41.4773 14.2888C41.2565 14.5175 41.1576 14.8375 41.2108 15.1508L42.1046 20.4167C42.2471 21.2562 41.342 21.8784 40.6092 21.4445L36.5095 19.0171C36.1953 18.8311 35.8047 18.8311 35.4905 19.0171L31.3908 21.4445C30.658 21.8784 29.7529 21.2562 29.8954 20.4167L30.7892 15.1508C30.8424 14.8375 30.7435 14.5175 30.5227 14.2888L26.8963 10.5335C26.3297 9.94676 26.666 8.96509 27.4733 8.849L32.281 8.15764C32.6235 8.10839 32.9162 7.88559 33.0549 7.56857L35.0838 2.93002Z" fill="#FFC700"/>
<path d="M59.6052 3.62918C59.9734 2.89105 61.0266 2.89105 61.3948 3.62918L63.5733 7.99604C63.7225 8.29518 64.0114 8.49997 64.343 8.54178L69.2814 9.16444C70.1288 9.27129 70.4608 10.3228 69.8285 10.8969L66.2757 14.1229C66.0171 14.3577 65.8997 14.7104 65.9661 15.0533L66.8664 19.7041C67.0254 20.5252 66.1662 21.167 65.4239 20.7817L60.9608 18.4646C60.6719 18.3147 60.3281 18.3147 60.0392 18.4646L55.5761 20.7817C54.8338 21.167 53.9746 20.5252 54.1336 19.7041L55.0339 15.0533C55.1003 14.7104 54.9829 14.3577 54.7243 14.1229L51.1715 10.8969C50.5392 10.3228 50.8712 9.27129 51.7186 9.16444L56.657 8.54178C56.9886 8.49997 57.2775 8.29518 57.4267 7.99604L59.6052 3.62918Z" fill="#FFC700"/>
<path d="M84.0838 2.93002C84.4333 2.13102 85.5667 2.13102 85.9162 2.93002L87.9451 7.56857C88.0838 7.88559 88.3765 8.10839 88.719 8.15764L93.5267 8.849C94.334 8.96509 94.6703 9.94676 94.1037 10.5335L90.4773 14.2888C90.2565 14.5175 90.1576 14.8375 90.2108 15.1508L91.1046 20.4167C91.2471 21.2562 90.342 21.8784 89.6092 21.4445L85.5095 19.0171C85.1953 18.8311 84.8047 18.8311 84.4905 19.0171L80.3908 21.4445C79.658 21.8784 78.7529 21.2562 78.8954 20.4167L79.7892 15.1508C79.8424 14.8375 79.7435 14.5175 79.5227 14.2888L75.8963 10.5335C75.3297 9.94676 75.666 8.96509 76.4733 8.849L81.281 8.15764C81.6235 8.10839 81.9162 7.88559 82.0549 7.56857L84.0838 2.93002Z" fill="#FFC700"/>
<path d="M108.605 3.62918C108.973 2.89105 110.027 2.89105 110.395 3.62918L112.573 7.99604C112.723 8.29518 113.011 8.49997 113.343 8.54178L118.281 9.16444C119.129 9.27129 119.461 10.3228 118.828 10.8969L115.276 14.1229C115.017 14.3577 114.9 14.7104 114.966 15.0533L115.866 19.7041C116.025 20.5252 115.166 21.167 114.424 20.7817L109.961 18.4646C109.672 18.3147 109.328 18.3147 109.039 18.4646L104.576 20.7817C103.834 21.167 102.975 20.5252 103.134 19.7041L104.034 15.0533C104.1 14.7104 103.983 14.3577 103.724 14.1229L100.172 10.8969C99.5392 10.3228 99.8712 9.27129 100.719 9.16444L105.657 8.54178C105.989 8.49997 106.277 8.29518 106.427 7.99604L108.605 3.62918Z" fill="#FFC700"/>
</svg>
