<svg width="141" height="28" viewBox="0 0 141 28" fill="none" xmlns="http://www.w3.org/2000/svg">
<path d="M12.5916 1.9743C12.9486 1.19831 14.0514 1.19831 14.4084 1.9743L17.1588 7.95168C17.3017 8.26216 17.5932 8.47817 17.9318 8.52446L24.3228 9.39811C25.1456 9.51059 25.4807 10.5189 24.8889 11.1015L20.1668 15.7502C19.9317 15.9816 19.8259 16.3139 19.8839 16.6386L21.0624 23.2391C21.211 24.0713 20.3242 24.7009 19.5875 24.2863L13.9905 21.1361C13.686 20.9647 13.314 20.9647 13.0095 21.1361L7.41249 24.2863C6.67584 24.7009 5.78898 24.0713 5.93757 23.2391L7.11614 16.6386C7.17411 16.3139 7.06827 15.9816 6.83325 15.7502L2.11108 11.1015C1.51927 10.5189 1.85438 9.51059 2.67718 9.39811L9.06816 8.52446C9.40677 8.47817 9.6983 8.26216 9.84116 7.95168L12.5916 1.9743Z" fill="#FFC700"/>
<path d="M41.0857 2.06339C41.4372 1.27019 42.5628 1.27019 42.9143 2.06339L45.5195 7.94312C45.6593 8.25851 45.9517 8.4796 46.2933 8.52809L52.4084 9.39619C53.2197 9.51135 53.5557 10.4998 52.9828 11.0855L48.4155 15.7546C48.1911 15.984 48.0904 16.3071 48.1448 16.6234L49.2773 23.2097C49.4213 24.0474 48.5209 24.6714 47.7871 24.2425L42.5046 21.1549C42.1929 20.9727 41.8071 20.9727 41.4954 21.1549L36.2129 24.2425C35.4791 24.6714 34.5787 24.0474 34.7227 23.2097L35.8552 16.6234C35.9096 16.3071 35.8089 15.984 35.5845 15.7546L31.0172 11.0855C30.4443 10.4998 30.7803 9.51135 31.5916 9.39619L37.7067 8.52809C38.0483 8.4796 38.3407 8.25851 38.4805 7.94312L41.0857 2.06339Z" fill="#FFC700"/>
<path d="M69.5916 1.9743C69.9486 1.19831 71.0514 1.19831 71.4084 1.9743L74.1588 7.95168C74.3017 8.26216 74.5932 8.47817 74.9318 8.52446L81.3228 9.39811C82.1456 9.51059 82.4807 10.5189 81.8889 11.1015L77.1668 15.7502C76.9317 15.9816 76.8259 16.3139 76.8839 16.6386L78.0624 23.2391C78.211 24.0713 77.3242 24.7009 76.5875 24.2863L70.9905 21.1361C70.686 20.9647 70.314 20.9647 70.0095 21.1361L64.4125 24.2863C63.6758 24.7009 62.789 24.0713 62.9376 23.2391L64.1161 16.6386C64.1741 16.3139 64.0683 15.9816 63.8332 15.7502L59.1111 11.1015C58.5193 10.5189 58.8544 9.51059 59.6772 9.39811L66.0682 8.52446C66.4068 8.47817 66.6983 8.26216 66.8412 7.95168L69.5916 1.9743Z" fill="#FFC700"/>
<path d="M98.0857 2.06339C98.4372 1.27019 99.5628 1.27019 99.9143 2.06339L102.52 7.94312C102.659 8.25851 102.952 8.4796 103.293 8.52809L109.408 9.39619C110.22 9.51135 110.556 10.4998 109.983 11.0855L105.415 15.7546C105.191 15.984 105.09 16.3071 105.145 16.6234L106.277 23.2097C106.421 24.0474 105.521 24.6714 104.787 24.2425L99.5046 21.1549C99.1929 20.9727 98.8071 20.9727 98.4954 21.1549L93.2129 24.2425C92.4791 24.6714 91.5787 24.0474 91.7227 23.2097L92.8552 16.6234C92.9096 16.3071 92.8089 15.984 92.5845 15.7546L88.0172 11.0855C87.4443 10.4998 87.7803 9.51135 88.5916 9.39619L94.7067 8.52809C95.0483 8.4796 95.3407 8.25851 95.4805 7.94312L98.0857 2.06339Z" fill="#FFC700"/>
<path d="M126.592 1.9743C126.949 1.19831 128.051 1.19831 128.408 1.9743L131.159 7.95168C131.302 8.26216 131.593 8.47817 131.932 8.52446L138.323 9.39811C139.146 9.51059 139.481 10.5189 138.889 11.1015L134.167 15.7502C133.932 15.9816 133.826 16.3139 133.884 16.6386L135.062 23.2391C135.211 24.0713 134.324 24.7009 133.588 24.2863L127.99 21.1361C127.686 20.9647 127.314 20.9647 127.01 21.1361L121.412 24.2863C120.676 24.7009 119.789 24.0713 119.938 23.2391L121.116 16.6386C121.174 16.3139 121.068 15.9816 120.833 15.7502L116.111 11.1015C115.519 10.5189 115.854 9.51059 116.677 9.39811L123.068 8.52446C123.407 8.47817 123.698 8.26216 123.841 7.95168L126.592 1.9743Z" fill="#FFC700"/>
</svg>
