<svg width="26" height="23" viewBox="0 0 26 23" fill="none" xmlns="http://www.w3.org/2000/svg">
<path d="M3.14251 12.8181L12.2208 21.3463C12.5336 21.64 12.6899 21.7869 12.8743 21.8231C12.9573 21.8394 13.0427 21.8394 13.1257 21.8231C13.3101 21.7869 13.4664 21.64 13.7792 21.3463L22.8575 12.8181C25.4118 10.4187 25.7219 6.47009 23.5737 3.70121L23.1697 3.18058C20.5998 -0.131782 15.4413 0.423727 13.6355 4.2073C13.3804 4.74175 12.6196 4.74175 12.3645 4.2073C10.5587 0.423727 5.4002 -0.131777 2.83026 3.18059L2.42632 3.70122C0.27806 6.47009 0.58824 10.4187 3.14251 12.8181Z" stroke="black" stroke-width="2"/>
</svg>
