<svg width="23" height="29" viewBox="0 0 23 29" fill="none" xmlns="http://www.w3.org/2000/svg">
<g clip-path="url(#clip0_38_68)">
<path d="M9.7236 19.9012C10.2933 21.0359 11.9811 21.9929 13.7751 21.9929C19.1076 21.9929 22.9574 16.9614 22.9574 10.7046C22.9574 4.70161 18.177 0.224731 12.0413 0.224731C4.39114 0.224731 0.3396 5.48098 0.3396 11.1976C0.3396 13.8692 1.72314 17.168 3.93822 18.2301C4.27437 18.3932 4.46191 18.3207 4.53622 17.9909C4.59283 17.7371 4.90068 16.4974 5.0316 15.9319C5.07406 15.7542 5.05991 15.5875 4.91483 15.4099C4.18591 14.5 3.60206 12.8252 3.60206 11.2737C3.60206 7.27173 6.56022 3.40386 11.6025 3.40386C15.9584 3.40386 19.005 6.43436 19.005 10.7807C19.005 15.6781 16.5847 19.082 13.439 19.082C11.7051 19.082 10.3924 17.603 10.817 15.7977C11.3265 13.6336 12.289 11.3027 12.289 9.75123C12.289 8.36286 11.5601 7.19923 10.0456 7.19923C8.26929 7.19923 6.83975 9.08061 6.83975 11.6036C6.83975 13.2022 7.36345 14.2897 7.36345 14.2897C7.36345 14.2897 5.61545 21.8877 5.29345 23.3087C4.94314 24.8747 5.07406 27.086 5.23683 28.5179L6.41868 28.9819C7.1476 27.7711 8.22683 25.8027 8.6196 24.2186C8.83545 23.3631 9.7236 19.9012 9.7236 19.9012Z" fill="black"/>
</g>
<defs>
<clipPath id="clip0_38_68">
<rect width="23" height="29" fill="white"/>
</clipPath>
</defs>
</svg>
