<svg width="35" height="29" viewBox="0 0 35 29" fill="none" xmlns="http://www.w3.org/2000/svg">
<g clip-path="url(#clip0_37_45)">
<path d="M10.925 29C24.0309 29 31.2 17.8454 31.2 8.16888C31.2 7.85355 31.1952 7.53823 31.1808 7.2229C32.5715 6.18824 33.78 4.90231 34.7342 3.43408C33.4587 4.01546 32.0824 4.40962 30.6438 4.58699C32.116 3.68043 33.2429 2.24669 33.7752 0.537037C32.3989 1.37462 30.8739 1.98556 29.2483 2.31566C27.9487 0.891777 26.0977 0 24.0501 0C20.113 0 16.9241 3.28135 16.9241 7.32144C16.9241 7.89789 16.9864 8.45464 17.1111 8.99168C11.1888 8.6862 5.93779 5.77438 2.42275 1.34013C1.80894 2.42406 1.45887 3.68043 1.45887 5.02056C1.45887 7.56286 2.71527 9.80462 4.62864 11.1152C3.45856 11.0807 2.36041 10.7506 1.40132 10.1988C1.40132 10.2283 1.40132 10.2579 1.40132 10.2924C1.40132 13.8398 3.85658 16.8009 7.11746 17.4709C6.51803 17.6385 5.88983 17.7271 5.23766 17.7271C4.7773 17.7271 4.33132 17.6828 3.89974 17.5941C4.80607 20.501 7.43875 22.6196 10.5558 22.6787C8.1149 24.6446 5.04584 25.8123 1.70344 25.8123C1.12799 25.8123 0.562127 25.7778 0.00585938 25.7088C3.15645 27.788 6.90166 29 10.925 29Z" fill="black"/>
</g>
<defs>
<clipPath id="clip0_37_45">
<rect width="35" height="29" fill="white"/>
</clipPath>
</defs>
</svg>
