<svg width="30" height="29" viewBox="0 0 30 29" fill="none" xmlns="http://www.w3.org/2000/svg">
<g clip-path="url(#clip0_38_62)">
<path d="M16.5651 12.2465C16.9801 11.7958 17.3251 11.3354 17.7501 10.9428C19.0651 9.7458 20.6151 9.14001 22.4301 9.15455C23.4251 9.16424 24.4101 9.23209 25.3701 9.50348C27.5651 10.119 28.8451 11.5874 29.4551 13.6664C29.9101 15.2269 29.9951 16.8262 30.0001 18.4351C30.0051 21.8227 29.9901 25.215 29.9951 28.6026C29.9951 28.9176 29.9051 29.0048 29.5801 29C27.7801 28.9854 25.9751 28.9854 24.1751 29C23.8601 29.0048 23.7901 28.9079 23.7901 28.6171C23.8001 25.3944 23.8051 22.1668 23.7901 18.944C23.7851 18.1347 23.7351 17.3302 23.5001 16.5402C23.0701 15.0912 22.0001 14.3546 20.4351 14.437C18.3001 14.5484 17.1901 15.571 16.9151 17.6791C16.8501 18.1831 16.8201 18.6871 16.8201 19.1911C16.8251 22.3267 16.8151 25.4622 16.8301 28.5977C16.8301 28.9127 16.7501 29.0048 16.4201 29C14.6051 28.9854 12.7901 28.9854 10.9751 29C10.6851 29 10.6001 28.9273 10.6001 28.6413C10.6101 22.4333 10.6101 16.2204 10.6001 10.0123C10.6001 9.70703 10.7051 9.63433 11.0051 9.63433C12.7301 9.64887 14.4501 9.64887 16.1751 9.63433C16.4901 9.62949 16.5751 9.73126 16.5651 10.022C16.5551 10.7587 16.5651 11.505 16.5651 12.2465Z" fill="black"/>
<path d="M6.6951 19.3414C6.6951 22.4139 6.6901 25.4865 6.7001 28.559C6.7001 28.8982 6.6151 29.0049 6.2501 29C4.4501 28.9806 2.6501 28.9855 0.850098 28.9952C0.560098 28.9952 0.475098 28.9273 0.475098 28.6365C0.485098 22.4188 0.485098 16.1962 0.475098 9.97845C0.475098 9.7216 0.540098 9.62952 0.820098 9.62952C2.6451 9.63921 4.4751 9.64406 6.3001 9.62952C6.6501 9.62467 6.7001 9.76037 6.7001 10.0511C6.6951 13.1479 6.6951 16.2447 6.6951 19.3414Z" fill="black"/>
<path d="M7.19501 3.46992C7.19501 5.39873 5.58001 6.96892 3.59501 6.96892C1.63501 6.96892 0.00501151 5.39873 1.15077e-05 3.499C-0.00498849 1.57988 1.62001 0 3.60501 0C5.57001 0 7.19001 1.57019 7.19501 3.46992Z" fill="black"/>
</g>
<defs>
<clipPath id="clip0_38_62">
<rect width="30" height="29" fill="white"/>
</clipPath>
</defs>
</svg>
