<svg width="29" height="29" viewBox="0 0 29 29" fill="none" xmlns="http://www.w3.org/2000/svg">
<g clip-path="url(#clip0_35_41)">
<path d="M20.6314 0H8.36865C3.74792 0 0 3.74843 0 8.36979V20.6302C0 25.2516 3.74792 29 8.36865 29H20.6274C25.2481 29 28.9961 25.2516 28.9961 20.6302V8.36979C29 3.74843 25.2521 0 20.6314 0ZM26.3263 20.8475C26.3263 23.9165 23.8422 26.4049 20.7735 26.4049H8.22647C5.15784 26.4049 2.66975 23.9165 2.66975 20.8475V8.29869C2.66975 5.22964 5.15784 2.74516 8.22647 2.74516H20.7735C23.8422 2.74516 26.3263 5.23359 26.3263 8.29869V20.8475Z" fill="black"/>
<path d="M14.4981 7.04657C10.3434 7.04657 6.97461 10.4158 6.97461 14.5711C6.97461 18.7264 10.3434 22.0956 14.4981 22.0956C18.6568 22.0956 22.0255 18.7264 22.0255 14.5711C22.0255 10.4198 18.6568 7.04657 14.4981 7.04657ZM14.4981 19.4531C11.8047 19.4531 9.62067 17.2689 9.62067 14.575C9.62067 11.8812 11.8047 9.69694 14.4981 9.69694C17.1955 9.69694 19.3755 11.8812 19.3755 14.575C19.3755 17.2689 17.1955 19.4531 14.4981 19.4531Z" fill="black"/>
<path d="M22.2743 5.00842C21.3067 5.00842 20.5208 5.79445 20.5208 6.76217C20.5208 7.72989 21.3067 8.51591 22.2743 8.51591C23.2418 8.51591 24.0278 7.72989 24.0278 6.76217C24.0278 5.79445 23.2458 5.00842 22.2743 5.00842Z" fill="black"/>
</g>
<defs>
<clipPath id="clip0_35_41">
<rect width="29" height="29" fill="white"/>
</clipPath>
</defs>
</svg>
