<svg width="29" height="29" viewBox="0 0 29 29" fill="none" xmlns="http://www.w3.org/2000/svg">
<g clip-path="url(#clip0_37_55)">
<path d="M22.3846 9.24229C22.3764 9.85576 22.3476 10.4692 22.3023 11.0786C22.294 11.1815 22.2899 11.2886 22.2899 11.3915C22.2858 11.6179 22.4176 11.7126 22.644 11.6921C22.7264 11.6838 22.8087 11.6632 22.8869 11.6344C23.1093 11.5562 23.3316 11.4738 23.5539 11.3874C23.9245 11.2474 24.295 11.1074 24.6821 11.0168C24.9414 10.9551 25.2008 10.9262 25.4685 10.9839C26.0696 11.1198 26.3825 11.7209 26.1478 12.2932C26.086 12.4455 25.9955 12.5732 25.8884 12.6926C25.7361 12.8655 25.559 13.0096 25.3655 13.1413C25.1391 13.2937 24.9126 13.4419 24.6862 13.5901C24.3074 13.8372 23.9286 14.0842 23.5539 14.3395C23.3975 14.4424 23.2451 14.5536 23.0969 14.6688C23.0146 14.7306 22.9363 14.8047 22.8705 14.8829C22.7305 15.0394 22.6646 15.2288 22.677 15.4388C22.6893 15.6405 22.7264 15.8381 22.7799 16.0317C22.961 16.6575 23.2328 17.2421 23.5663 17.798C24.1798 18.8232 24.9744 19.696 25.9008 20.4495C26.6872 21.0876 27.5436 21.6147 28.4535 22.0634C28.5358 22.1046 28.614 22.1458 28.6923 22.1911C28.754 22.2281 28.8034 22.2734 28.8446 22.3311C28.9064 22.4175 28.9146 22.5081 28.8611 22.6069C28.8158 22.6893 28.754 22.751 28.684 22.8087C28.5811 22.8951 28.4658 22.961 28.3505 23.0228C27.8359 23.3027 27.2883 23.5004 26.7201 23.6568C26.4772 23.7227 26.2384 23.7927 25.9996 23.8627C25.8308 23.9121 25.6743 23.9862 25.522 24.0644C25.2626 24.2003 25.1144 24.4144 25.0567 24.6985C25.0279 24.8549 25.0073 25.0155 24.9785 25.172C24.9085 25.5672 24.7644 25.7154 24.3733 25.7813C24.2374 25.806 24.0974 25.8184 23.9574 25.8266C23.6116 25.8472 23.2616 25.8554 22.9158 25.876C22.1294 25.9213 21.3512 26.0407 20.6019 26.2877C20.2848 26.3907 19.9801 26.5265 19.6878 26.6954C19.379 26.8724 19.0785 27.0577 18.7738 27.2388C18.2921 27.5312 17.8021 27.807 17.2751 28.0129C16.6863 28.2393 16.0811 28.3752 15.4512 28.4328C14.92 28.4822 14.393 28.474 13.866 28.4164C13.0755 28.3299 12.3303 28.0993 11.6221 27.737C11.2927 27.5682 10.9757 27.3788 10.6628 27.1894C10.4322 27.0494 10.1975 26.9095 9.96697 26.7695C9.41114 26.4401 8.81002 26.226 8.18008 26.0901C7.60778 25.9666 7.02725 25.8966 6.4426 25.8719C6.13792 25.8596 5.82913 25.8472 5.52445 25.8307C5.35152 25.8225 5.1786 25.7978 5.00979 25.7525C4.77099 25.6907 4.61865 25.5466 4.56924 25.2996C4.54042 25.1637 4.51984 25.0237 4.49513 24.8879C4.49102 24.8591 4.49102 24.8344 4.4869 24.8055C4.43337 24.4391 4.25633 24.1756 3.91048 24.0191C3.7005 23.9244 3.48641 23.8462 3.26407 23.7845C2.88117 23.6774 2.49826 23.5868 2.12359 23.451C1.79421 23.3357 1.47718 23.1957 1.17251 23.0269C1.08193 22.9775 0.991346 22.9239 0.904883 22.8622C0.847242 22.8251 0.793717 22.7798 0.74431 22.7304C0.567268 22.5452 0.57962 22.3763 0.785483 22.2199C0.884297 22.1417 0.99958 22.0923 1.11075 22.0346C1.90538 21.6435 2.66295 21.1865 3.36289 20.6471C4.36338 19.8772 5.22389 18.9714 5.88677 17.8885C6.24085 17.3121 6.53318 16.7028 6.71845 16.0522C6.78021 15.8464 6.82139 15.6323 6.82962 15.4182C6.83785 15.2041 6.76374 15.0229 6.62376 14.8665C6.53729 14.7718 6.4426 14.6935 6.34378 14.6194C6.05557 14.4012 5.7509 14.2036 5.45034 14.006C5.06743 13.7548 4.68041 13.5037 4.29751 13.2525C4.10399 13.1249 3.91872 12.989 3.75403 12.8325C3.63051 12.7173 3.52346 12.5896 3.437 12.4455C3.25584 12.1408 3.24349 11.8279 3.37936 11.5068C3.47405 11.2845 3.63874 11.1321 3.86519 11.0415C4.11223 10.9468 4.3675 10.9386 4.62689 10.9798C4.93156 11.0292 5.21977 11.1239 5.50798 11.2268C5.80031 11.3339 6.09263 11.4491 6.38496 11.5603C6.52083 11.6138 6.6567 11.6632 6.80492 11.6838C6.83785 11.6879 6.87491 11.7003 6.90785 11.7003C7.07666 11.6962 7.21664 11.6385 7.21253 11.4162C7.21253 11.2268 7.20429 11.0415 7.19194 10.8521C7.12195 9.83517 7.09724 8.82233 7.13841 7.80537C7.16312 7.15896 7.23311 6.51255 7.37722 5.88261C7.57896 5.00151 7.9454 4.19865 8.49299 3.47813C9.50172 2.14413 10.8357 1.3001 12.4332 0.851314C13.3061 0.604279 14.1954 0.526051 15.1012 0.554871C16.0564 0.583692 16.9787 0.760734 17.8721 1.10658C18.7161 1.43597 19.4902 1.88886 20.1531 2.50645C20.993 3.28873 21.6394 4.19865 21.9894 5.30207C22.1458 5.80026 22.2488 6.3108 22.3105 6.82958C22.3887 7.62832 22.3929 8.43531 22.3846 9.24229Z" fill="black"/>
</g>
<defs>
<clipPath id="clip0_37_55">
<rect width="29" height="29" fill="white"/>
</clipPath>
</defs>
</svg>
