<svg width="42" height="29" viewBox="0 0 42 29" fill="none" xmlns="http://www.w3.org/2000/svg">
<g clip-path="url(#clip0_37_49)">
<path d="M41.1191 4.53016C40.6376 2.7459 39.2106 1.34399 37.4077 0.868957C34.1309 0 21 0 21 0C21 0 7.86326 0 4.59228 0.868957C2.78356 1.34399 1.36242 2.7517 0.880872 4.53016C0 7.75689 0 14.5 0 14.5C0 14.5 0 21.2431 0.875 24.4698C1.35654 26.2541 2.78356 27.656 4.58641 28.131C7.86326 29 20.9941 29 20.9941 29C20.9941 29 34.125 29 37.4018 28.131C39.2106 27.656 40.6317 26.2483 41.1133 24.4698C41.9941 21.2373 41.9941 14.5 41.9941 14.5C41.9941 14.5 42 7.75689 41.1191 4.53016Z" fill="black"/>
<path d="M16.8013 20.7159L27.7123 14.5L16.8013 8.28406V20.7159Z" fill="white"/>
</g>
<defs>
<clipPath id="clip0_37_49">
<rect width="42" height="29" fill="white"/>
</clipPath>
</defs>
</svg>
