<svg width="26" height="29" viewBox="0 0 26 29" fill="none" xmlns="http://www.w3.org/2000/svg">
<g clip-path="url(#clip0_38_60)">
<path d="M22.1453 5.8627C19.8848 4.60865 19.1451 2.53946 18.9062 1.2227C18.7729 0.497143 18.7913 0 18.7913 0H13.7742C13.7742 0 13.7742 11.2999 13.7742 11.5642C13.7742 14.3679 13.8798 17.1761 13.6685 19.9798C13.5031 22.152 11.7756 23.9076 9.46457 23.9076C8.83053 23.9076 8.22866 23.7688 7.68652 23.5269C6.23008 22.8686 5.2193 21.4354 5.2193 19.7693C5.2193 17.4806 7.1214 15.6264 9.46916 15.6264C9.92402 15.6264 10.3651 15.6981 10.774 15.828V11.7881V10.6505C10.3467 10.5923 9.91023 10.5609 9.46916 10.5609C4.23608 10.5564 0 14.6859 0 19.7782C0 23.0567 1.75508 25.932 4.39689 27.5668C5.86252 28.4715 7.59922 29 9.45998 29C13.0207 29 16.1817 27.0338 17.7667 23.9435C19.2829 20.992 18.8556 17.6777 18.8556 14.4888C18.8556 12.9212 18.8556 11.3537 18.8556 9.7861C22.8436 12.4196 26 11.9807 26 11.9807V7.9095V6.8973C24.3782 6.79429 23.1193 6.40463 22.1453 5.8627Z" fill="black"/>
</g>
<defs>
<clipPath id="clip0_38_60">
<rect width="26" height="29" fill="white"/>
</clipPath>
</defs>
</svg>
