<svg width="22" height="21" viewBox="0 0 22 21" fill="none" xmlns="http://www.w3.org/2000/svg">
<path d="M15.0888 5.16129C15.0888 7.59758 13.1138 9.57258 10.6775 9.57258C8.24118 9.57258 6.26617 7.59758 6.26617 5.16129C6.26617 2.725 8.24118 0.75 10.6775 0.75C13.1138 0.75 15.0888 2.725 15.0888 5.16129Z" stroke="black" stroke-width="1.5" stroke-linecap="round"/>
<path d="M1.78811 15.6434C2.61642 13.3587 4.99537 12.2581 7.42564 12.2581H13.9292C16.3595 12.2581 18.7384 13.3587 19.5667 15.6434C19.9165 16.6082 20.2079 17.7431 20.3129 19.0002C20.3589 19.5506 19.9071 20 19.3548 20H2C1.44771 20 0.995901 19.5506 1.04189 19.0002C1.14694 17.7431 1.43836 16.6082 1.78811 15.6434Z" stroke="black" stroke-width="1.5" stroke-linecap="round"/>
</svg>
