<svg width="181" height="40" viewBox="0 0 181 40" fill="none" xmlns="http://www.w3.org/2000/svg">
<path d="M7.27002 38.07C4.47002 37.14 2.05 35.82 0 34.13L4.49002 27.71C7.77002 30.33 11.59 31.65 15.96 31.65C18.14 31.65 19.88 31.27 21.17 30.52C22.46 29.77 23.1 28.74 23.1 27.45C23.1 26.23 22.5 25.28 21.3 24.59C20.1 23.91 18.2 23.42 15.59 23.13C10.55 22.56 6.86002 21.35 4.52002 19.52C2.18002 17.69 1.01001 15.06 1.01001 11.65C1.01001 9.35 1.64 7.32 2.91 5.56C4.18 3.8 5.96 2.43 8.25 1.46C10.54 0.489999 13.18 0 16.18 0C18.75 0 21.26 0.379997 23.71 1.13C26.16 1.88 28.32 2.95 30.18 4.31L26.11 10.51C23.22 8.46 20.03 7.44 16.55 7.44C14.4 7.44 12.68 7.8 11.4 8.52C10.11 9.24 9.47 10.21 9.47 11.43C9.47 12.62 10.02 13.53 11.13 14.18C12.24 14.83 14.1 15.31 16.7 15.64C21.7 16.22 25.44 17.48 27.9 19.44C30.36 21.4 31.6 24.09 31.6 27.5C31.6 29.87 30.95 31.97 29.64 33.78C28.34 35.6 26.5 37 24.14 37.99C21.78 38.98 19.07 39.47 16 39.47C12.98 39.47 10.07 39 7.27002 38.07Z" fill="black"/>
<path d="M65.7399 0.869995H74.3499V38.61H65.7399V23.46H50.0499V38.61H41.3799V0.869995H50.0499V15.48H65.7399V0.869995Z" fill="black"/>
<path d="M95.0699 31.17H115.47V38.61H86.6699V0.869995H114.89V8.25999H95.0699V15.92H113.83V23.04H95.0699V31.17Z" fill="black"/>
<path d="M126.08 0.869995H134.75V38.61H126.08V0.869995Z" fill="black"/>
<path d="M171.47 0.869995H180.08V38.61H172.31L155.56 15.26L155.67 25.45V38.61H147.06V0.869995H154.83L171.58 24.33L171.47 14.25V0.869995Z" fill="black"/>
</svg>
