<svg width="20" height="20" viewBox="0 0 20 20" fill="none" xmlns="http://www.w3.org/2000/svg">
<path d="M8.19931 1.21531C6.3477 1.21746 4.57254 1.95396 3.26325 3.26325C1.95396 4.57254 1.21746 6.3477 1.21531 8.19931C1.21746 10.0509 1.95396 11.8261 3.26325 13.1354C4.57254 14.4447 6.3477 15.1812 8.19931 15.1833C10.0509 15.1812 11.8261 14.4447 13.1354 13.1354C14.4447 11.8261 15.1812 10.0509 15.1833 8.19931C15.1812 6.3477 14.4447 4.57254 13.1354 3.26325C11.8261 1.95396 10.0509 1.21746 8.19931 1.21531ZM8.19931 0C10.3739 0 12.4594 0.863853 13.9971 2.40152C15.5348 3.93919 16.3986 6.02472 16.3986 8.19931C16.3986 10.3739 15.5348 12.4594 13.9971 13.9971C12.4594 15.5348 10.3739 16.3986 8.19931 16.3986C6.02472 16.3986 3.93919 15.5348 2.40152 13.9971C0.863853 12.4594 0 10.3739 0 8.19931C0 6.02472 0.863853 3.93919 2.40152 2.40152C3.93919 0.863853 6.02472 0 8.19931 0Z" fill="black"/>
<path d="M14.0774 13.166L19.1412 18.2298" stroke="black" stroke-width="1.21531" stroke-linecap="round"/>
</svg>
