<svg width="14" height="17" viewBox="0 0 14 17" fill="none" xmlns="http://www.w3.org/2000/svg">
<path fill-rule="evenodd" clip-rule="evenodd" d="M7.39804 16.3528C8.88097 15.5836 14 12.5652 14 7.54883C14 3.68283 10.866 0.548828 7 0.548828C3.13401 0.548828 0 3.68283 0 7.54883C0 12.5652 5.11903 15.5836 6.60196 16.3528C6.85483 16.484 7.14517 16.484 7.39804 16.3528ZM7 10.5488C8.65685 10.5488 10 9.20568 10 7.54883C10 5.89197 8.65685 4.54883 7 4.54883C5.34315 4.54883 4 5.89197 4 7.54883C4 9.20568 5.34315 10.5488 7 10.5488Z" fill="#222222"/>
</svg>
