<svg width="19" height="22" viewBox="0 0 19 22" fill="none" xmlns="http://www.w3.org/2000/svg">
<path d="M1.29236 12.5789V9.42105C1.29236 7.18765 2.17957 5.04572 3.75883 3.46647C5.33808 1.88722 7.48001 1 9.71341 1C11.9468 1 14.0887 1.88722 15.668 3.46647C17.2472 5.04572 18.1345 7.18765 18.1345 9.42105V12.5789M1.29236 12.5789C1.29236 12.0206 1.51416 11.4851 1.90898 11.0903C2.30379 10.6955 2.83927 10.4737 3.39762 10.4737H4.45025C5.0086 10.4737 5.54408 10.6955 5.9389 11.0903C6.33371 11.4851 6.55552 12.0206 6.55552 12.5789V15.7368C6.55552 16.2952 6.33371 16.8307 5.9389 17.2255C5.54408 17.6203 5.0086 17.8421 4.45025 17.8421H3.39762C2.83927 17.8421 2.30379 17.6203 1.90898 17.2255C1.51416 16.8307 1.29236 16.2952 1.29236 15.7368V12.5789ZM18.1345 12.5789C18.1345 12.0206 17.9127 11.4851 17.5178 11.0903C17.123 10.6955 16.5875 10.4737 16.0292 10.4737H14.9766C14.4182 10.4737 13.8827 10.6955 13.4879 11.0903C13.0931 11.4851 12.8713 12.0206 12.8713 12.5789V15.7368C12.8713 16.2952 13.0931 16.8307 13.4879 17.2255C13.8827 17.6203 14.4182 17.8421 14.9766 17.8421H16.0292M18.1345 12.5789V15.7368C18.1345 16.2952 17.9127 16.8307 17.5178 17.2255C17.123 17.6203 16.5875 17.8421 16.0292 17.8421M16.0292 17.8421C16.0292 19.5863 13.2018 21 9.71341 21" stroke="black" stroke-width="1.5" stroke-linecap="round" stroke-linejoin="round"/>
</svg>
