<svg width="22" height="22" viewBox="0 0 22 22" fill="none" xmlns="http://www.w3.org/2000/svg">
<path d="M11.1345 21C16.6574 21 21.1345 16.5228 21.1345 11C21.1345 5.47715 16.6574 1 11.1345 1M11.1345 21C5.61167 21 1.13452 16.5228 1.13452 11C1.13452 5.47715 5.61167 1 11.1345 1M11.1345 21C13.2056 21 14.8845 16.5228 14.8845 11C14.8845 5.47715 13.2056 1 11.1345 1M11.1345 21C9.06345 21 7.38452 16.5228 7.38452 11C7.38452 5.47715 9.06345 1 11.1345 1M1.75952 11H20.5095" stroke="black" stroke-width="1.5" stroke-linecap="round"/>
</svg>
