<svg width="24" height="22" viewBox="0 0 24 22" fill="none" xmlns="http://www.w3.org/2000/svg">
<path d="M7.12194 10.4118L7.12194 5.70588C7.12194 3.10689 9.22883 0.999999 11.8278 1C14.4268 1 16.5337 3.1069 16.5337 5.70588L16.5337 10.4118M3.35587 21H20.2998C21.29 21 21.7851 21 22.0744 20.6856C22.3637 20.3712 22.3225 19.8778 22.2403 18.891L21.5372 10.4535C21.3959 8.75846 21.3253 7.91096 20.7664 7.39666C20.2074 6.88235 19.357 6.88235 17.6561 6.88235H5.99954C4.29867 6.88235 3.44824 6.88235 2.88929 7.39666C2.33034 7.91096 2.25972 8.75846 2.11847 10.4535L1.41533 18.891C1.3331 19.8778 1.29198 20.3712 1.58125 20.6856C1.87052 21 2.36564 21 3.35587 21Z" stroke="black" stroke-width="1.5" stroke-linecap="round"/>
</svg>
