<svg width="28" height="28" viewBox="0 0 28 28" fill="none" xmlns="http://www.w3.org/2000/svg">
<path d="M14.545 23.0681H5.955C5.83452 23.0738 5.71669 23.0315 5.62729 22.9506C5.53789 22.8696 5.48421 22.7565 5.478 22.636V5.36405C5.48421 5.2436 5.53789 5.13051 5.62729 5.04955C5.71669 4.96858 5.83452 4.92634 5.955 4.93205H14.546V4.50005H5.955C5.71395 4.48862 5.47817 4.57308 5.29921 4.73499C5.12026 4.89689 5.01268 5.12306 5 5.36405V22.636C5.01268 22.877 5.12026 23.1032 5.29921 23.2651C5.47817 23.427 5.71395 23.5115 5.955 23.5H14.546L14.545 23.0681Z" stroke="black" stroke-width="0.8"/>
<path d="M10 13.991C10 14.1719 10.0719 14.3454 10.1998 14.4733C10.3277 14.6012 10.5011 14.673 10.682 14.673H23.003L19.164 18.493C19.0973 18.5556 19.0439 18.6309 19.0069 18.7144C18.9699 18.798 18.9501 18.8882 18.9487 18.9795C18.9472 19.0709 18.9641 19.1617 18.9984 19.2464C19.0327 19.3311 19.0837 19.4081 19.1483 19.4727C19.213 19.5373 19.2899 19.5883 19.3746 19.6226C19.4594 19.6569 19.5501 19.6738 19.6415 19.6724C19.7329 19.6709 19.823 19.6511 19.9066 19.6141C19.9902 19.5771 20.0655 19.5237 20.128 19.457L25.128 14.474C25.2555 14.346 25.3271 14.1727 25.3271 13.992C25.3271 13.8113 25.2555 13.638 25.128 13.51L20.128 8.55103C19.9988 8.42987 19.8276 8.36371 19.6505 8.36654C19.4735 8.36938 19.3044 8.44098 19.1792 8.5662C19.054 8.69143 18.9824 8.86046 18.9795 9.03754C18.9767 9.21462 19.0428 9.38586 19.164 9.51503L23.003 13.31H10.682C10.5011 13.31 10.3277 13.3819 10.1998 13.5098C10.0719 13.6377 10 13.8101 10 13.991Z" fill="black"/>
</svg>
