<svg width="25" height="27" viewBox="0 0 25 27" fill="none" xmlns="http://www.w3.org/2000/svg">
<path d="M19.1313 22.7821H1.71526C1.62143 22.7867 1.52766 22.7718 1.43983 22.7385C1.35201 22.7051 1.27202 22.6539 1.20489 22.5882C1.13776 22.5225 1.08493 22.4436 1.04972 22.3565C1.01451 22.2694 0.997668 22.176 1.00026 22.0821L2.38126 6.39908C2.40449 6.22825 2.49047 6.07219 2.62245 5.96127C2.75444 5.85036 2.92298 5.79254 3.09526 5.79908H17.7493C17.9214 5.79364 18.0895 5.85183 18.2214 5.96252C18.3533 6.07321 18.4397 6.22864 18.4643 6.39908L19.8463 22.0771C19.8496 22.1714 19.8332 22.2654 19.7983 22.3531C19.7634 22.4408 19.7107 22.5203 19.6435 22.5865C19.5763 22.6528 19.4961 22.7044 19.4079 22.7381C19.3197 22.7717 19.2255 22.7867 19.1313 22.7821Z" stroke="black" stroke-width="1.1" stroke-linecap="round" stroke-linejoin="round"/>
<path d="M6.37721 8.888V3.271C6.36181 2.81752 6.52686 2.37644 6.83616 2.04446C7.14546 1.71248 7.57378 1.51668 8.02721 1.5H12.8172C13.2706 1.51668 13.699 1.71248 14.0083 2.04446C14.3176 2.37644 14.4826 2.81752 14.4672 3.271V8.888" stroke="black" stroke-width="1.1" stroke-linecap="round" stroke-linejoin="round"/>
<rect x="6" y="11.5" width="19" height="15" rx="7.5" fill="black"/>
<path d="M15.31 22.61C14.75 22.61 14.2567 22.4567 13.83 22.15C13.4033 21.8433 13.0667 21.42 12.82 20.88C12.58 20.3333 12.46 19.7067 12.46 19C12.46 18.2933 12.58 17.67 12.82 17.13C13.0667 16.5833 13.4033 16.1567 13.83 15.85C14.2567 15.5433 14.75 15.39 15.31 15.39C15.87 15.39 16.3633 15.5433 16.79 15.85C17.2167 16.1567 17.55 16.5833 17.79 17.13C18.0367 17.67 18.16 18.2933 18.16 19C18.16 19.7067 18.0367 20.3333 17.79 20.88C17.55 21.42 17.2167 21.8433 16.79 22.15C16.3633 22.4567 15.87 22.61 15.31 22.61ZM15.31 21.96C15.7433 21.96 16.1167 21.84 16.43 21.6C16.75 21.3533 16.9967 21.0067 17.17 20.56C17.3433 20.1133 17.43 19.5933 17.43 19C17.43 18.4 17.3433 17.88 17.17 17.44C16.9967 16.9933 16.75 16.65 16.43 16.41C16.1167 16.1633 15.7433 16.04 15.31 16.04C14.8833 16.04 14.51 16.1633 14.19 16.41C13.87 16.65 13.6233 16.9933 13.45 17.44C13.2767 17.88 13.19 18.4 13.19 19C13.19 19.5933 13.2767 20.1133 13.45 20.56C13.6233 21.0067 13.87 21.3533 14.19 21.6C14.51 21.84 14.8833 21.96 15.31 21.96Z" fill="white"/>
</svg>
