<svg width="24" height="24" viewBox="0 0 24 24" fill="none" xmlns="http://www.w3.org/2000/svg">
<path d="M3.21799 5.09202L2.54973 4.75153L2.54973 4.75153L3.21799 5.09202ZM4.09202 4.21799L3.75153 3.54973L3.75153 3.54973L4.09202 4.21799ZM19.908 4.21799L20.2485 3.54973L20.2485 3.54973L19.908 4.21799ZM20.782 5.09202L20.1138 5.43251L20.1138 5.43251L20.782 5.09202ZM20.782 18.908L20.1138 18.5675L20.1138 18.5675L20.782 18.908ZM19.908 19.782L20.2485 20.4503L20.2485 20.4503L19.908 19.782ZM4.09202 19.782L4.43251 19.1138L4.43251 19.1138L4.09202 19.782ZM3.21799 18.908L3.88624 18.5675L3.88624 18.5675L3.21799 18.908ZM3.75 7.2C3.75 6.62757 3.75058 6.24336 3.77476 5.94748C3.79822 5.66035 3.8401 5.52307 3.88624 5.43251L2.54973 4.75153C2.37789 5.08879 2.31078 5.44545 2.27974 5.82533C2.24942 6.19646 2.25 6.65232 2.25 7.2H3.75ZM3.88624 5.43251C4.00608 5.19731 4.19731 5.00608 4.43251 4.88624L3.75153 3.54973C3.23408 3.81338 2.81338 4.23408 2.54973 4.75153L3.88624 5.43251ZM4.43251 4.88624C4.52307 4.8401 4.66035 4.79822 4.94748 4.77476C5.24336 4.75058 5.62757 4.75 6.2 4.75V3.25C5.65232 3.25 5.19646 3.24942 4.82533 3.27974C4.44545 3.31078 4.08879 3.37789 3.75153 3.54973L4.43251 4.88624ZM6.2 4.75H17.8V3.25H6.2V4.75ZM17.8 4.75C18.3724 4.75 18.7566 4.75058 19.0525 4.77476C19.3396 4.79822 19.4769 4.8401 19.5675 4.88624L20.2485 3.54973C19.9112 3.37789 19.5546 3.31078 19.1747 3.27974C18.8035 3.24942 18.3477 3.25 17.8 3.25V4.75ZM19.5675 4.88624C19.8027 5.00608 19.9939 5.19731 20.1138 5.43251L21.4503 4.75153C21.1866 4.23408 20.7659 3.81338 20.2485 3.54973L19.5675 4.88624ZM20.1138 5.43251C20.1599 5.52307 20.2018 5.66035 20.2252 5.94748C20.2494 6.24336 20.25 6.62757 20.25 7.2H21.75C21.75 6.65232 21.7506 6.19646 21.7203 5.82533C21.6892 5.44545 21.6221 5.08879 21.4503 4.75153L20.1138 5.43251ZM20.25 7.2V9.76923H21.75V7.2H20.25ZM20.25 9.76923C20.25 9.48246 20.4825 9.25 20.7692 9.25V10.75C21.3109 10.75 21.75 10.3109 21.75 9.76923H20.25ZM20.7692 9.25H20V10.75H20.7692V9.25ZM20 9.25C18.4812 9.25 17.25 10.4812 17.25 12H18.75C18.75 11.3096 19.3096 10.75 20 10.75V9.25ZM17.25 12C17.25 13.5188 18.4812 14.75 20 14.75V13.25C19.3096 13.25 18.75 12.6904 18.75 12H17.25ZM20 14.75H20.7692V13.25H20V14.75ZM20.7692 14.75C20.4825 14.75 20.25 14.5175 20.25 14.2308H21.75C21.75 13.6891 21.3109 13.25 20.7692 13.25V14.75ZM20.25 14.2308V16.8H21.75V14.2308H20.25ZM20.25 16.8C20.25 17.3724 20.2494 17.7566 20.2252 18.0525C20.2018 18.3396 20.1599 18.4769 20.1138 18.5675L21.4503 19.2485C21.6221 18.9112 21.6892 18.5546 21.7203 18.1747C21.7506 17.8035 21.75 17.3477 21.75 16.8H20.25ZM20.1138 18.5675C19.9939 18.8027 19.8027 18.9939 19.5675 19.1138L20.2485 20.4503C20.7659 20.1866 21.1866 19.7659 21.4503 19.2485L20.1138 18.5675ZM19.5675 19.1138C19.4769 19.1599 19.3396 19.2018 19.0525 19.2252C18.7566 19.2494 18.3724 19.25 17.8 19.25V20.75C18.3477 20.75 18.8035 20.7506 19.1747 20.7203C19.5546 20.6892 19.9112 20.6221 20.2485 20.4503L19.5675 19.1138ZM17.8 19.25H6.2V20.75H17.8V19.25ZM6.2 19.25C5.62757 19.25 5.24336 19.2494 4.94748 19.2252C4.66035 19.2018 4.52307 19.1599 4.43251 19.1138L3.75153 20.4503C4.08879 20.6221 4.44545 20.6892 4.82533 20.7203C5.19646 20.7506 5.65232 20.75 6.2 20.75V19.25ZM4.43251 19.1138C4.19731 18.9939 4.00608 18.8027 3.88624 18.5675L2.54973 19.2485C2.81338 19.7659 3.23408 20.1866 3.75153 20.4503L4.43251 19.1138ZM3.88624 18.5675C3.8401 18.4769 3.79822 18.3396 3.77476 18.0525C3.75058 17.7566 3.75 17.3724 3.75 16.8H2.25C2.25 17.3477 2.24942 17.8035 2.27974 18.1747C2.31078 18.5546 2.37789 18.9112 2.54973 19.2485L3.88624 18.5675ZM3.75 16.8V14.2308H2.25V16.8H3.75ZM3.75 14.2308C3.75 14.5175 3.51753 14.75 3.23077 14.75V13.25C2.68911 13.25 2.25 13.6891 2.25 14.2308H3.75ZM3.23077 14.75H4V13.25H3.23077V14.75ZM4 14.75C5.51878 14.75 6.75 13.5188 6.75 12H5.25C5.25 12.6904 4.69036 13.25 4 13.25V14.75ZM6.75 12C6.75 10.4812 5.51878 9.25 4 9.25V10.75C4.69036 10.75 5.25 11.3096 5.25 12H6.75ZM4 9.25H3.23077V10.75H4V9.25ZM3.23077 9.25C3.51753 9.25 3.75 9.48247 3.75 9.76923H2.25C2.25 10.3109 2.68911 10.75 3.23077 10.75V9.25ZM3.75 9.76923V7.2H2.25V9.76923H3.75Z" fill="black"/>
<path d="M13 9V10" stroke="black" stroke-width="1.5" stroke-linecap="round"/>
<path d="M13 4V5" stroke="black" stroke-width="1.5" stroke-linecap="round"/>
<path d="M13 14V15" stroke="black" stroke-width="1.5" stroke-linecap="round"/>
<path d="M13 19V20" stroke="black" stroke-width="1.5" stroke-linecap="round"/>
</svg>
